<mxfile host="Electron" agent="Mozilla/5.0 (X11; Linux x86_64) AppleWebKit/537.36 (KHTML, like Gecko) draw.io/27.0.9 Chrome/134.0.6998.205 Electron/35.4.0 Safari/537.36" version="27.0.9">
  <diagram name="PÃ¡gina-1" id="hXetYZ1rp4OhHh-xbmcZ">
    <mxGraphModel dx="1678" dy="992" grid="0" gridSize="10" guides="1" tooltips="1" connect="1" arrows="1" fold="1" page="1" pageScale="1" pageWidth="827" pageHeight="1169" math="0" shadow="0">
      <root>
        <mxCell id="0" />
        <mxCell id="1" parent="0" />
        <mxCell id="GAhWslGpDzED-drZhbNq-3" style="edgeStyle=orthogonalEdgeStyle;rounded=0;orthogonalLoop=1;jettySize=auto;html=1;exitX=0.5;exitY=1;exitDx=0;exitDy=0;" edge="1" parent="1" source="GAhWslGpDzED-drZhbNq-1">
          <mxGeometry relative="1" as="geometry">
            <mxPoint x="221" y="121" as="targetPoint" />
          </mxGeometry>
        </mxCell>
        <mxCell id="GAhWslGpDzED-drZhbNq-75" value="&lt;b&gt;&lt;font style=&quot;font-size: 13px;&quot;&gt;i&lt;/font&gt;&lt;/b&gt;" style="edgeLabel;html=1;align=center;verticalAlign=middle;resizable=0;points=[];" vertex="1" connectable="0" parent="GAhWslGpDzED-drZhbNq-3">
          <mxGeometry x="-0.3687" relative="1" as="geometry">
            <mxPoint as="offset" />
          </mxGeometry>
        </mxCell>
        <mxCell id="GAhWslGpDzED-drZhbNq-1" value="1" style="ellipse;whiteSpace=wrap;html=1;aspect=fixed;" vertex="1" parent="1">
          <mxGeometry x="201" y="32" width="40" height="40" as="geometry" />
        </mxCell>
        <mxCell id="GAhWslGpDzED-drZhbNq-2" value="2" style="ellipse;whiteSpace=wrap;html=1;aspect=fixed;" vertex="1" parent="1">
          <mxGeometry x="201" y="122" width="40" height="40" as="geometry" />
        </mxCell>
        <mxCell id="GAhWslGpDzED-drZhbNq-6" style="edgeStyle=orthogonalEdgeStyle;rounded=0;orthogonalLoop=1;jettySize=auto;html=1;exitX=0.5;exitY=1;exitDx=0;exitDy=0;" edge="1" parent="1" source="GAhWslGpDzED-drZhbNq-7">
          <mxGeometry relative="1" as="geometry">
            <mxPoint x="221" y="301" as="targetPoint" />
          </mxGeometry>
        </mxCell>
        <mxCell id="GAhWslGpDzED-drZhbNq-77" value="&lt;b&gt;&lt;font style=&quot;font-size: 13px;&quot;&gt;iii&lt;/font&gt;&lt;/b&gt;" style="edgeLabel;html=1;align=center;verticalAlign=middle;resizable=0;points=[];" vertex="1" connectable="0" parent="GAhWslGpDzED-drZhbNq-6">
          <mxGeometry x="-0.1736" y="2" relative="1" as="geometry">
            <mxPoint as="offset" />
          </mxGeometry>
        </mxCell>
        <mxCell id="GAhWslGpDzED-drZhbNq-7" value="3" style="ellipse;whiteSpace=wrap;html=1;aspect=fixed;" vertex="1" parent="1">
          <mxGeometry x="201" y="212" width="40" height="40" as="geometry" />
        </mxCell>
        <mxCell id="GAhWslGpDzED-drZhbNq-8" value="4" style="ellipse;whiteSpace=wrap;html=1;aspect=fixed;" vertex="1" parent="1">
          <mxGeometry x="201" y="302" width="40" height="40" as="geometry" />
        </mxCell>
        <mxCell id="GAhWslGpDzED-drZhbNq-9" style="edgeStyle=orthogonalEdgeStyle;rounded=0;orthogonalLoop=1;jettySize=auto;html=1;exitX=0.5;exitY=1;exitDx=0;exitDy=0;" edge="1" parent="1">
          <mxGeometry relative="1" as="geometry">
            <mxPoint x="220.71" y="211" as="targetPoint" />
            <mxPoint x="220.71" y="162" as="sourcePoint" />
          </mxGeometry>
        </mxCell>
        <mxCell id="GAhWslGpDzED-drZhbNq-76" value="&lt;b&gt;&lt;font style=&quot;font-size: 13px;&quot;&gt;ii&lt;/font&gt;&lt;/b&gt;" style="edgeLabel;html=1;align=center;verticalAlign=middle;resizable=0;points=[];" vertex="1" connectable="0" parent="GAhWslGpDzED-drZhbNq-9">
          <mxGeometry x="-0.2357" y="2" relative="1" as="geometry">
            <mxPoint as="offset" />
          </mxGeometry>
        </mxCell>
        <mxCell id="GAhWslGpDzED-drZhbNq-10" style="edgeStyle=orthogonalEdgeStyle;rounded=0;orthogonalLoop=1;jettySize=auto;html=1;exitX=0.5;exitY=1;exitDx=0;exitDy=0;" edge="1" parent="1">
          <mxGeometry relative="1" as="geometry">
            <mxPoint x="220.71" y="391" as="targetPoint" />
            <mxPoint x="220.71" y="342" as="sourcePoint" />
          </mxGeometry>
        </mxCell>
        <mxCell id="GAhWslGpDzED-drZhbNq-78" value="&lt;b&gt;&lt;font style=&quot;font-size: 13px;&quot;&gt;iv&lt;/font&gt;&lt;/b&gt;" style="edgeLabel;html=1;align=center;verticalAlign=middle;resizable=0;points=[];" vertex="1" connectable="0" parent="GAhWslGpDzED-drZhbNq-10">
          <mxGeometry x="-0.292" y="1" relative="1" as="geometry">
            <mxPoint as="offset" />
          </mxGeometry>
        </mxCell>
        <mxCell id="GAhWslGpDzED-drZhbNq-11" style="edgeStyle=orthogonalEdgeStyle;rounded=0;orthogonalLoop=1;jettySize=auto;html=1;exitX=0.5;exitY=1;exitDx=0;exitDy=0;" edge="1" parent="1" source="GAhWslGpDzED-drZhbNq-12">
          <mxGeometry relative="1" as="geometry">
            <mxPoint x="219" y="481" as="targetPoint" />
          </mxGeometry>
        </mxCell>
        <mxCell id="GAhWslGpDzED-drZhbNq-79" value="&lt;span style=&quot;font-size: 13px;&quot;&gt;&lt;b&gt;v&lt;/b&gt;&lt;/span&gt;" style="edgeLabel;html=1;align=center;verticalAlign=middle;resizable=0;points=[];" vertex="1" connectable="0" parent="GAhWslGpDzED-drZhbNq-11">
          <mxGeometry x="-0.3687" y="-3" relative="1" as="geometry">
            <mxPoint as="offset" />
          </mxGeometry>
        </mxCell>
        <mxCell id="GAhWslGpDzED-drZhbNq-12" value="5" style="ellipse;whiteSpace=wrap;html=1;aspect=fixed;" vertex="1" parent="1">
          <mxGeometry x="199" y="392" width="40" height="40" as="geometry" />
        </mxCell>
        <mxCell id="GAhWslGpDzED-drZhbNq-13" value="6" style="ellipse;whiteSpace=wrap;html=1;aspect=fixed;" vertex="1" parent="1">
          <mxGeometry x="199" y="482" width="40" height="40" as="geometry" />
        </mxCell>
        <mxCell id="GAhWslGpDzED-drZhbNq-14" style="edgeStyle=orthogonalEdgeStyle;rounded=0;orthogonalLoop=1;jettySize=auto;html=1;exitX=0.5;exitY=1;exitDx=0;exitDy=0;" edge="1" parent="1" source="GAhWslGpDzED-drZhbNq-15">
          <mxGeometry relative="1" as="geometry">
            <mxPoint x="219" y="661" as="targetPoint" />
          </mxGeometry>
        </mxCell>
        <mxCell id="GAhWslGpDzED-drZhbNq-81" value="&lt;b&gt;&lt;font style=&quot;font-size: 13px;&quot;&gt;vii&lt;/font&gt;&lt;/b&gt;" style="edgeLabel;html=1;align=center;verticalAlign=middle;resizable=0;points=[];" vertex="1" connectable="0" parent="GAhWslGpDzED-drZhbNq-14">
          <mxGeometry x="-0.313" relative="1" as="geometry">
            <mxPoint as="offset" />
          </mxGeometry>
        </mxCell>
        <mxCell id="GAhWslGpDzED-drZhbNq-15" value="7" style="ellipse;whiteSpace=wrap;html=1;aspect=fixed;" vertex="1" parent="1">
          <mxGeometry x="199" y="572" width="40" height="40" as="geometry" />
        </mxCell>
        <mxCell id="GAhWslGpDzED-drZhbNq-16" value="8" style="ellipse;whiteSpace=wrap;html=1;aspect=fixed;" vertex="1" parent="1">
          <mxGeometry x="199" y="662" width="40" height="40" as="geometry" />
        </mxCell>
        <mxCell id="GAhWslGpDzED-drZhbNq-17" style="edgeStyle=orthogonalEdgeStyle;rounded=0;orthogonalLoop=1;jettySize=auto;html=1;exitX=0.5;exitY=1;exitDx=0;exitDy=0;" edge="1" parent="1">
          <mxGeometry relative="1" as="geometry">
            <mxPoint x="218.71" y="571" as="targetPoint" />
            <mxPoint x="218.71" y="522" as="sourcePoint" />
          </mxGeometry>
        </mxCell>
        <mxCell id="GAhWslGpDzED-drZhbNq-80" value="&lt;b&gt;&lt;font style=&quot;font-size: 13px;&quot;&gt;vi&lt;/font&gt;&lt;/b&gt;" style="edgeLabel;html=1;align=center;verticalAlign=middle;resizable=0;points=[];" vertex="1" connectable="0" parent="GAhWslGpDzED-drZhbNq-17">
          <mxGeometry x="-0.0387" y="3" relative="1" as="geometry">
            <mxPoint as="offset" />
          </mxGeometry>
        </mxCell>
        <mxCell id="GAhWslGpDzED-drZhbNq-18" style="edgeStyle=orthogonalEdgeStyle;rounded=0;orthogonalLoop=1;jettySize=auto;html=1;exitX=0.5;exitY=1;exitDx=0;exitDy=0;" edge="1" parent="1">
          <mxGeometry relative="1" as="geometry">
            <mxPoint x="218.71" y="751" as="targetPoint" />
            <mxPoint x="218.71" y="702" as="sourcePoint" />
          </mxGeometry>
        </mxCell>
        <mxCell id="GAhWslGpDzED-drZhbNq-82" value="&lt;b&gt;&lt;font style=&quot;font-size: 13px;&quot;&gt;viii&lt;/font&gt;&lt;/b&gt;" style="edgeLabel;html=1;align=center;verticalAlign=middle;resizable=0;points=[];" vertex="1" connectable="0" parent="GAhWslGpDzED-drZhbNq-18">
          <mxGeometry x="-0.2357" y="1" relative="1" as="geometry">
            <mxPoint as="offset" />
          </mxGeometry>
        </mxCell>
        <mxCell id="GAhWslGpDzED-drZhbNq-19" style="edgeStyle=orthogonalEdgeStyle;rounded=0;orthogonalLoop=1;jettySize=auto;html=1;exitX=0.5;exitY=1;exitDx=0;exitDy=0;" edge="1" parent="1" source="GAhWslGpDzED-drZhbNq-20">
          <mxGeometry relative="1" as="geometry">
            <mxPoint x="219" y="841" as="targetPoint" />
          </mxGeometry>
        </mxCell>
        <mxCell id="GAhWslGpDzED-drZhbNq-83" value="&lt;b&gt;&lt;font style=&quot;font-size: 13px;&quot;&gt;ix&lt;/font&gt;&lt;/b&gt;" style="edgeLabel;html=1;align=center;verticalAlign=middle;resizable=0;points=[];" vertex="1" connectable="0" parent="GAhWslGpDzED-drZhbNq-19">
          <mxGeometry x="-0.2851" relative="1" as="geometry">
            <mxPoint as="offset" />
          </mxGeometry>
        </mxCell>
        <mxCell id="GAhWslGpDzED-drZhbNq-20" value="9" style="ellipse;whiteSpace=wrap;html=1;aspect=fixed;" vertex="1" parent="1">
          <mxGeometry x="199" y="752" width="40" height="40" as="geometry" />
        </mxCell>
        <mxCell id="GAhWslGpDzED-drZhbNq-21" value="10" style="ellipse;whiteSpace=wrap;html=1;aspect=fixed;" vertex="1" parent="1">
          <mxGeometry x="199" y="842" width="40" height="40" as="geometry" />
        </mxCell>
        <mxCell id="GAhWslGpDzED-drZhbNq-22" style="edgeStyle=orthogonalEdgeStyle;rounded=0;orthogonalLoop=1;jettySize=auto;html=1;exitX=0.5;exitY=1;exitDx=0;exitDy=0;" edge="1" parent="1" source="GAhWslGpDzED-drZhbNq-23">
          <mxGeometry relative="1" as="geometry">
            <mxPoint x="219" y="1021" as="targetPoint" />
          </mxGeometry>
        </mxCell>
        <mxCell id="GAhWslGpDzED-drZhbNq-85" value="&lt;b&gt;&lt;font style=&quot;font-size: 13px;&quot;&gt;xi&lt;/font&gt;&lt;/b&gt;" style="edgeLabel;html=1;align=center;verticalAlign=middle;resizable=0;points=[];" vertex="1" connectable="0" parent="GAhWslGpDzED-drZhbNq-22">
          <mxGeometry x="-0.2851" relative="1" as="geometry">
            <mxPoint as="offset" />
          </mxGeometry>
        </mxCell>
        <mxCell id="GAhWslGpDzED-drZhbNq-23" value="11" style="ellipse;whiteSpace=wrap;html=1;aspect=fixed;" vertex="1" parent="1">
          <mxGeometry x="199" y="932" width="40" height="40" as="geometry" />
        </mxCell>
        <mxCell id="GAhWslGpDzED-drZhbNq-24" value="12" style="ellipse;whiteSpace=wrap;html=1;aspect=fixed;" vertex="1" parent="1">
          <mxGeometry x="199" y="1022" width="40" height="40" as="geometry" />
        </mxCell>
        <mxCell id="GAhWslGpDzED-drZhbNq-25" style="edgeStyle=orthogonalEdgeStyle;rounded=0;orthogonalLoop=1;jettySize=auto;html=1;exitX=0.5;exitY=1;exitDx=0;exitDy=0;" edge="1" parent="1">
          <mxGeometry relative="1" as="geometry">
            <mxPoint x="218.71" y="931" as="targetPoint" />
            <mxPoint x="218.71" y="882" as="sourcePoint" />
          </mxGeometry>
        </mxCell>
        <mxCell id="GAhWslGpDzED-drZhbNq-84" value="&lt;span style=&quot;font-size: 13px;&quot;&gt;&lt;b&gt;x&lt;/b&gt;&lt;/span&gt;" style="edgeLabel;html=1;align=center;verticalAlign=middle;resizable=0;points=[];" vertex="1" connectable="0" parent="GAhWslGpDzED-drZhbNq-25">
          <mxGeometry x="-0.2076" relative="1" as="geometry">
            <mxPoint as="offset" />
          </mxGeometry>
        </mxCell>
        <mxCell id="GAhWslGpDzED-drZhbNq-26" style="edgeStyle=orthogonalEdgeStyle;rounded=0;orthogonalLoop=1;jettySize=auto;html=1;exitX=0.5;exitY=1;exitDx=0;exitDy=0;" edge="1" parent="1">
          <mxGeometry relative="1" as="geometry">
            <mxPoint x="218.71" y="1111" as="targetPoint" />
            <mxPoint x="218.71" y="1062" as="sourcePoint" />
          </mxGeometry>
        </mxCell>
        <mxCell id="GAhWslGpDzED-drZhbNq-86" value="&lt;b&gt;&lt;font style=&quot;font-size: 13px;&quot;&gt;xii&lt;/font&gt;&lt;/b&gt;" style="edgeLabel;html=1;align=center;verticalAlign=middle;resizable=0;points=[];" vertex="1" connectable="0" parent="GAhWslGpDzED-drZhbNq-26">
          <mxGeometry x="-0.2076" y="-2" relative="1" as="geometry">
            <mxPoint as="offset" />
          </mxGeometry>
        </mxCell>
        <mxCell id="GAhWslGpDzED-drZhbNq-27" style="edgeStyle=orthogonalEdgeStyle;rounded=0;orthogonalLoop=1;jettySize=auto;html=1;exitX=0.5;exitY=1;exitDx=0;exitDy=0;" edge="1" parent="1" source="GAhWslGpDzED-drZhbNq-28">
          <mxGeometry relative="1" as="geometry">
            <mxPoint x="219" y="1201" as="targetPoint" />
          </mxGeometry>
        </mxCell>
        <mxCell id="GAhWslGpDzED-drZhbNq-87" value="&lt;b&gt;&lt;font style=&quot;font-size: 13px;&quot;&gt;xiii&lt;/font&gt;&lt;/b&gt;" style="edgeLabel;html=1;align=center;verticalAlign=middle;resizable=0;points=[];" vertex="1" connectable="0" parent="GAhWslGpDzED-drZhbNq-27">
          <mxGeometry x="-0.3966" y="1" relative="1" as="geometry">
            <mxPoint as="offset" />
          </mxGeometry>
        </mxCell>
        <mxCell id="GAhWslGpDzED-drZhbNq-28" value="13" style="ellipse;whiteSpace=wrap;html=1;aspect=fixed;" vertex="1" parent="1">
          <mxGeometry x="199" y="1112" width="40" height="40" as="geometry" />
        </mxCell>
        <mxCell id="GAhWslGpDzED-drZhbNq-29" value="14" style="ellipse;whiteSpace=wrap;html=1;aspect=fixed;" vertex="1" parent="1">
          <mxGeometry x="199" y="1202" width="40" height="40" as="geometry" />
        </mxCell>
        <mxCell id="GAhWslGpDzED-drZhbNq-30" style="edgeStyle=orthogonalEdgeStyle;rounded=0;orthogonalLoop=1;jettySize=auto;html=1;exitX=0.5;exitY=1;exitDx=0;exitDy=0;" edge="1" parent="1" source="GAhWslGpDzED-drZhbNq-31">
          <mxGeometry relative="1" as="geometry">
            <mxPoint x="219" y="1381" as="targetPoint" />
          </mxGeometry>
        </mxCell>
        <mxCell id="GAhWslGpDzED-drZhbNq-89" value="&lt;b&gt;&lt;font style=&quot;font-size: 13px;&quot;&gt;xv&lt;/font&gt;&lt;/b&gt;" style="edgeLabel;html=1;align=center;verticalAlign=middle;resizable=0;points=[];" vertex="1" connectable="0" parent="GAhWslGpDzED-drZhbNq-30">
          <mxGeometry x="-0.313" relative="1" as="geometry">
            <mxPoint as="offset" />
          </mxGeometry>
        </mxCell>
        <mxCell id="GAhWslGpDzED-drZhbNq-31" value="15" style="ellipse;whiteSpace=wrap;html=1;aspect=fixed;" vertex="1" parent="1">
          <mxGeometry x="199" y="1292" width="40" height="40" as="geometry" />
        </mxCell>
        <mxCell id="GAhWslGpDzED-drZhbNq-74" value="&lt;span style=&quot;font-size: 13px;&quot;&gt;&lt;b&gt;xxx&lt;/b&gt;&lt;/span&gt;" style="edgeStyle=orthogonalEdgeStyle;rounded=0;orthogonalLoop=1;jettySize=auto;html=1;exitX=1;exitY=0.5;exitDx=0;exitDy=0;entryX=1;entryY=0.5;entryDx=0;entryDy=0;" edge="1" parent="1" source="GAhWslGpDzED-drZhbNq-32" target="GAhWslGpDzED-drZhbNq-62">
          <mxGeometry relative="1" as="geometry">
            <Array as="points">
              <mxPoint x="323" y="1402" />
              <mxPoint x="323" y="2642" />
            </Array>
          </mxGeometry>
        </mxCell>
        <mxCell id="GAhWslGpDzED-drZhbNq-32" value="16" style="ellipse;whiteSpace=wrap;html=1;aspect=fixed;" vertex="1" parent="1">
          <mxGeometry x="199" y="1382" width="40" height="40" as="geometry" />
        </mxCell>
        <mxCell id="GAhWslGpDzED-drZhbNq-33" style="edgeStyle=orthogonalEdgeStyle;rounded=0;orthogonalLoop=1;jettySize=auto;html=1;exitX=0.5;exitY=1;exitDx=0;exitDy=0;" edge="1" parent="1">
          <mxGeometry relative="1" as="geometry">
            <mxPoint x="218.71" y="1291" as="targetPoint" />
            <mxPoint x="218.71" y="1242" as="sourcePoint" />
          </mxGeometry>
        </mxCell>
        <mxCell id="GAhWslGpDzED-drZhbNq-88" value="&lt;b&gt;&lt;font style=&quot;font-size: 13px;&quot;&gt;xiv&lt;/font&gt;&lt;/b&gt;" style="edgeLabel;html=1;align=center;verticalAlign=middle;resizable=0;points=[];" vertex="1" connectable="0" parent="GAhWslGpDzED-drZhbNq-33">
          <mxGeometry x="-0.3202" y="2" relative="1" as="geometry">
            <mxPoint as="offset" />
          </mxGeometry>
        </mxCell>
        <mxCell id="GAhWslGpDzED-drZhbNq-34" style="edgeStyle=orthogonalEdgeStyle;rounded=0;orthogonalLoop=1;jettySize=auto;html=1;exitX=0.5;exitY=1;exitDx=0;exitDy=0;" edge="1" parent="1">
          <mxGeometry relative="1" as="geometry">
            <mxPoint x="218.71" y="1471" as="targetPoint" />
            <mxPoint x="218.71" y="1422" as="sourcePoint" />
          </mxGeometry>
        </mxCell>
        <mxCell id="GAhWslGpDzED-drZhbNq-90" value="&lt;b&gt;&lt;font style=&quot;font-size: 13px;&quot;&gt;xvi&lt;/font&gt;&lt;/b&gt;" style="edgeLabel;html=1;align=center;verticalAlign=middle;resizable=0;points=[];" vertex="1" connectable="0" parent="GAhWslGpDzED-drZhbNq-34">
          <mxGeometry x="-0.2076" y="3" relative="1" as="geometry">
            <mxPoint as="offset" />
          </mxGeometry>
        </mxCell>
        <mxCell id="GAhWslGpDzED-drZhbNq-35" style="edgeStyle=orthogonalEdgeStyle;rounded=0;orthogonalLoop=1;jettySize=auto;html=1;exitX=0.5;exitY=1;exitDx=0;exitDy=0;" edge="1" parent="1" source="GAhWslGpDzED-drZhbNq-36">
          <mxGeometry relative="1" as="geometry">
            <mxPoint x="219" y="1561" as="targetPoint" />
          </mxGeometry>
        </mxCell>
        <mxCell id="GAhWslGpDzED-drZhbNq-91" value="&lt;b&gt;&lt;font style=&quot;font-size: 13px;&quot;&gt;xvii&lt;/font&gt;&lt;/b&gt;" style="edgeLabel;html=1;align=center;verticalAlign=middle;resizable=0;points=[];" vertex="1" connectable="0" parent="GAhWslGpDzED-drZhbNq-35">
          <mxGeometry x="-0.2572" relative="1" as="geometry">
            <mxPoint as="offset" />
          </mxGeometry>
        </mxCell>
        <mxCell id="GAhWslGpDzED-drZhbNq-36" value="17" style="ellipse;whiteSpace=wrap;html=1;aspect=fixed;" vertex="1" parent="1">
          <mxGeometry x="199" y="1472" width="40" height="40" as="geometry" />
        </mxCell>
        <mxCell id="GAhWslGpDzED-drZhbNq-37" value="18" style="ellipse;whiteSpace=wrap;html=1;aspect=fixed;" vertex="1" parent="1">
          <mxGeometry x="199" y="1562" width="40" height="40" as="geometry" />
        </mxCell>
        <mxCell id="GAhWslGpDzED-drZhbNq-38" style="edgeStyle=orthogonalEdgeStyle;rounded=0;orthogonalLoop=1;jettySize=auto;html=1;exitX=0.5;exitY=1;exitDx=0;exitDy=0;" edge="1" parent="1" source="GAhWslGpDzED-drZhbNq-39">
          <mxGeometry relative="1" as="geometry">
            <mxPoint x="219" y="1741" as="targetPoint" />
          </mxGeometry>
        </mxCell>
        <mxCell id="GAhWslGpDzED-drZhbNq-93" value="&lt;b&gt;&lt;font style=&quot;font-size: 13px;&quot;&gt;xix&lt;/font&gt;&lt;/b&gt;" style="edgeLabel;html=1;align=center;verticalAlign=middle;resizable=0;points=[];" vertex="1" connectable="0" parent="GAhWslGpDzED-drZhbNq-38">
          <mxGeometry x="-0.2572" y="2" relative="1" as="geometry">
            <mxPoint as="offset" />
          </mxGeometry>
        </mxCell>
        <mxCell id="GAhWslGpDzED-drZhbNq-39" value="19" style="ellipse;whiteSpace=wrap;html=1;aspect=fixed;" vertex="1" parent="1">
          <mxGeometry x="199" y="1652" width="40" height="40" as="geometry" />
        </mxCell>
        <mxCell id="GAhWslGpDzED-drZhbNq-40" value="20" style="ellipse;whiteSpace=wrap;html=1;aspect=fixed;" vertex="1" parent="1">
          <mxGeometry x="199" y="1742" width="40" height="40" as="geometry" />
        </mxCell>
        <mxCell id="GAhWslGpDzED-drZhbNq-41" style="edgeStyle=orthogonalEdgeStyle;rounded=0;orthogonalLoop=1;jettySize=auto;html=1;exitX=0.5;exitY=1;exitDx=0;exitDy=0;" edge="1" parent="1">
          <mxGeometry relative="1" as="geometry">
            <mxPoint x="218.71" y="1651" as="targetPoint" />
            <mxPoint x="218.71" y="1602" as="sourcePoint" />
          </mxGeometry>
        </mxCell>
        <mxCell id="GAhWslGpDzED-drZhbNq-92" value="&lt;b&gt;&lt;font style=&quot;font-size: 13px;&quot;&gt;xviii&lt;/font&gt;&lt;/b&gt;" style="edgeLabel;html=1;align=center;verticalAlign=middle;resizable=0;points=[];" vertex="1" connectable="0" parent="GAhWslGpDzED-drZhbNq-41">
          <mxGeometry x="-0.4046" relative="1" as="geometry">
            <mxPoint as="offset" />
          </mxGeometry>
        </mxCell>
        <mxCell id="GAhWslGpDzED-drZhbNq-42" value="&lt;span style=&quot;font-size: 13px;&quot;&gt;&lt;b&gt;xx&lt;/b&gt;&lt;/span&gt;" style="edgeStyle=orthogonalEdgeStyle;rounded=0;orthogonalLoop=1;jettySize=auto;html=1;exitX=0.5;exitY=1;exitDx=0;exitDy=0;" edge="1" parent="1">
          <mxGeometry relative="1" as="geometry">
            <mxPoint x="218.71" y="1831" as="targetPoint" />
            <mxPoint x="218.71" y="1782" as="sourcePoint" />
          </mxGeometry>
        </mxCell>
        <mxCell id="GAhWslGpDzED-drZhbNq-43" value="&lt;b&gt;&lt;font style=&quot;font-size: 13px;&quot;&gt;xxi&lt;/font&gt;&lt;/b&gt;" style="edgeStyle=orthogonalEdgeStyle;rounded=0;orthogonalLoop=1;jettySize=auto;html=1;exitX=0.5;exitY=1;exitDx=0;exitDy=0;" edge="1" parent="1" source="GAhWslGpDzED-drZhbNq-44">
          <mxGeometry relative="1" as="geometry">
            <mxPoint x="217" y="1921" as="targetPoint" />
          </mxGeometry>
        </mxCell>
        <mxCell id="GAhWslGpDzED-drZhbNq-44" value="21" style="ellipse;whiteSpace=wrap;html=1;aspect=fixed;" vertex="1" parent="1">
          <mxGeometry x="197" y="1832" width="40" height="40" as="geometry" />
        </mxCell>
        <mxCell id="GAhWslGpDzED-drZhbNq-45" value="22" style="ellipse;whiteSpace=wrap;html=1;aspect=fixed;" vertex="1" parent="1">
          <mxGeometry x="197" y="1922" width="40" height="40" as="geometry" />
        </mxCell>
        <mxCell id="GAhWslGpDzED-drZhbNq-46" value="&lt;b&gt;&lt;font style=&quot;font-size: 13px;&quot;&gt;xxiii&lt;/font&gt;&lt;/b&gt;" style="edgeStyle=orthogonalEdgeStyle;rounded=0;orthogonalLoop=1;jettySize=auto;html=1;exitX=0.5;exitY=1;exitDx=0;exitDy=0;" edge="1" parent="1" source="GAhWslGpDzED-drZhbNq-47">
          <mxGeometry relative="1" as="geometry">
            <mxPoint x="217" y="2101" as="targetPoint" />
          </mxGeometry>
        </mxCell>
        <mxCell id="GAhWslGpDzED-drZhbNq-47" value="23" style="ellipse;whiteSpace=wrap;html=1;aspect=fixed;" vertex="1" parent="1">
          <mxGeometry x="197" y="2012" width="40" height="40" as="geometry" />
        </mxCell>
        <mxCell id="GAhWslGpDzED-drZhbNq-48" value="24" style="ellipse;whiteSpace=wrap;html=1;aspect=fixed;" vertex="1" parent="1">
          <mxGeometry x="197" y="2102" width="40" height="40" as="geometry" />
        </mxCell>
        <mxCell id="GAhWslGpDzED-drZhbNq-49" value="&lt;b&gt;&lt;font style=&quot;font-size: 13px;&quot;&gt;xxii&lt;/font&gt;&lt;/b&gt;" style="edgeStyle=orthogonalEdgeStyle;rounded=0;orthogonalLoop=1;jettySize=auto;html=1;exitX=0.5;exitY=1;exitDx=0;exitDy=0;" edge="1" parent="1">
          <mxGeometry relative="1" as="geometry">
            <mxPoint x="216.71" y="2011" as="targetPoint" />
            <mxPoint x="216.71" y="1962" as="sourcePoint" />
          </mxGeometry>
        </mxCell>
        <mxCell id="GAhWslGpDzED-drZhbNq-50" value="&lt;b&gt;&lt;font style=&quot;font-size: 13px;&quot;&gt;xxiv&lt;/font&gt;&lt;/b&gt;" style="edgeStyle=orthogonalEdgeStyle;rounded=0;orthogonalLoop=1;jettySize=auto;html=1;exitX=0.5;exitY=1;exitDx=0;exitDy=0;" edge="1" parent="1">
          <mxGeometry relative="1" as="geometry">
            <mxPoint x="216.71" y="2191" as="targetPoint" />
            <mxPoint x="216.71" y="2142" as="sourcePoint" />
          </mxGeometry>
        </mxCell>
        <mxCell id="GAhWslGpDzED-drZhbNq-51" value="&lt;b&gt;&lt;font style=&quot;font-size: 13px;&quot;&gt;xxv&lt;/font&gt;&lt;/b&gt;" style="edgeStyle=orthogonalEdgeStyle;rounded=0;orthogonalLoop=1;jettySize=auto;html=1;exitX=0.5;exitY=1;exitDx=0;exitDy=0;" edge="1" parent="1" source="GAhWslGpDzED-drZhbNq-52">
          <mxGeometry relative="1" as="geometry">
            <mxPoint x="217" y="2281" as="targetPoint" />
          </mxGeometry>
        </mxCell>
        <mxCell id="GAhWslGpDzED-drZhbNq-52" value="25" style="ellipse;whiteSpace=wrap;html=1;aspect=fixed;" vertex="1" parent="1">
          <mxGeometry x="197" y="2192" width="40" height="40" as="geometry" />
        </mxCell>
        <mxCell id="GAhWslGpDzED-drZhbNq-53" value="26" style="ellipse;whiteSpace=wrap;html=1;aspect=fixed;" vertex="1" parent="1">
          <mxGeometry x="197" y="2282" width="40" height="40" as="geometry" />
        </mxCell>
        <mxCell id="GAhWslGpDzED-drZhbNq-54" value="&lt;b&gt;&lt;font style=&quot;font-size: 13px;&quot;&gt;xxvii&lt;/font&gt;&lt;/b&gt;" style="edgeStyle=orthogonalEdgeStyle;rounded=0;orthogonalLoop=1;jettySize=auto;html=1;exitX=0.5;exitY=1;exitDx=0;exitDy=0;" edge="1" parent="1" source="GAhWslGpDzED-drZhbNq-55">
          <mxGeometry relative="1" as="geometry">
            <mxPoint x="217" y="2461" as="targetPoint" />
          </mxGeometry>
        </mxCell>
        <mxCell id="GAhWslGpDzED-drZhbNq-55" value="27" style="ellipse;whiteSpace=wrap;html=1;aspect=fixed;" vertex="1" parent="1">
          <mxGeometry x="197" y="2372" width="40" height="40" as="geometry" />
        </mxCell>
        <mxCell id="GAhWslGpDzED-drZhbNq-56" value="28" style="ellipse;whiteSpace=wrap;html=1;aspect=fixed;" vertex="1" parent="1">
          <mxGeometry x="197" y="2462" width="40" height="40" as="geometry" />
        </mxCell>
        <mxCell id="GAhWslGpDzED-drZhbNq-57" value="&lt;span style=&quot;font-size: 13px;&quot;&gt;&lt;b&gt;xxvi&lt;/b&gt;&lt;/span&gt;" style="edgeStyle=orthogonalEdgeStyle;rounded=0;orthogonalLoop=1;jettySize=auto;html=1;exitX=0.5;exitY=1;exitDx=0;exitDy=0;" edge="1" parent="1">
          <mxGeometry relative="1" as="geometry">
            <mxPoint x="216.71" y="2371" as="targetPoint" />
            <mxPoint x="216.71" y="2322" as="sourcePoint" />
          </mxGeometry>
        </mxCell>
        <mxCell id="GAhWslGpDzED-drZhbNq-58" value="&lt;b&gt;&lt;font style=&quot;font-size: 13px;&quot;&gt;xxviii&lt;/font&gt;&lt;/b&gt;" style="edgeStyle=orthogonalEdgeStyle;rounded=0;orthogonalLoop=1;jettySize=auto;html=1;exitX=0.5;exitY=1;exitDx=0;exitDy=0;" edge="1" parent="1">
          <mxGeometry relative="1" as="geometry">
            <mxPoint x="216.71" y="2551" as="targetPoint" />
            <mxPoint x="216.71" y="2502" as="sourcePoint" />
          </mxGeometry>
        </mxCell>
        <mxCell id="GAhWslGpDzED-drZhbNq-60" value="&lt;div&gt;&lt;b&gt;&lt;font style=&quot;font-size: 13px;&quot;&gt;xxix&lt;/font&gt;&lt;/b&gt;&lt;/div&gt;" style="edgeStyle=orthogonalEdgeStyle;rounded=0;orthogonalLoop=1;jettySize=auto;html=1;exitX=0;exitY=0.5;exitDx=0;exitDy=0;entryX=0;entryY=0.5;entryDx=0;entryDy=0;" edge="1" parent="1" source="GAhWslGpDzED-drZhbNq-59" target="GAhWslGpDzED-drZhbNq-32">
          <mxGeometry relative="1" as="geometry">
            <Array as="points">
              <mxPoint x="121" y="2572" />
              <mxPoint x="121" y="1402" />
            </Array>
          </mxGeometry>
        </mxCell>
        <mxCell id="GAhWslGpDzED-drZhbNq-59" value="29" style="ellipse;whiteSpace=wrap;html=1;aspect=fixed;" vertex="1" parent="1">
          <mxGeometry x="197" y="2552" width="40" height="40" as="geometry" />
        </mxCell>
        <mxCell id="GAhWslGpDzED-drZhbNq-61" value="&lt;b&gt;&lt;font style=&quot;font-size: 13px;&quot;&gt;xxxi&lt;/font&gt;&lt;/b&gt;" style="edgeStyle=orthogonalEdgeStyle;rounded=0;orthogonalLoop=1;jettySize=auto;html=1;exitX=0.5;exitY=1;exitDx=0;exitDy=0;" edge="1" parent="1" source="GAhWslGpDzED-drZhbNq-62">
          <mxGeometry relative="1" as="geometry">
            <mxPoint x="218" y="2711" as="targetPoint" />
          </mxGeometry>
        </mxCell>
        <mxCell id="GAhWslGpDzED-drZhbNq-62" value="30" style="ellipse;whiteSpace=wrap;html=1;aspect=fixed;" vertex="1" parent="1">
          <mxGeometry x="198" y="2622" width="40" height="40" as="geometry" />
        </mxCell>
        <mxCell id="GAhWslGpDzED-drZhbNq-63" value="31" style="ellipse;whiteSpace=wrap;html=1;aspect=fixed;" vertex="1" parent="1">
          <mxGeometry x="198" y="2712" width="40" height="40" as="geometry" />
        </mxCell>
        <mxCell id="GAhWslGpDzED-drZhbNq-64" value="&lt;b&gt;&lt;font style=&quot;font-size: 13px;&quot;&gt;xxxiii&lt;/font&gt;&lt;/b&gt;" style="edgeStyle=orthogonalEdgeStyle;rounded=0;orthogonalLoop=1;jettySize=auto;html=1;exitX=0.5;exitY=1;exitDx=0;exitDy=0;" edge="1" parent="1" source="GAhWslGpDzED-drZhbNq-65">
          <mxGeometry relative="1" as="geometry">
            <mxPoint x="218" y="2891" as="targetPoint" />
          </mxGeometry>
        </mxCell>
        <mxCell id="GAhWslGpDzED-drZhbNq-65" value="32" style="ellipse;whiteSpace=wrap;html=1;aspect=fixed;" vertex="1" parent="1">
          <mxGeometry x="198" y="2802" width="40" height="40" as="geometry" />
        </mxCell>
        <mxCell id="GAhWslGpDzED-drZhbNq-66" value="33" style="ellipse;whiteSpace=wrap;html=1;aspect=fixed;" vertex="1" parent="1">
          <mxGeometry x="198" y="2892" width="40" height="40" as="geometry" />
        </mxCell>
        <mxCell id="GAhWslGpDzED-drZhbNq-67" value="&lt;b&gt;&lt;font style=&quot;font-size: 13px;&quot;&gt;xxxii&lt;/font&gt;&lt;/b&gt;" style="edgeStyle=orthogonalEdgeStyle;rounded=0;orthogonalLoop=1;jettySize=auto;html=1;exitX=0.5;exitY=1;exitDx=0;exitDy=0;" edge="1" parent="1">
          <mxGeometry relative="1" as="geometry">
            <mxPoint x="217.71" y="2801" as="targetPoint" />
            <mxPoint x="217.71" y="2752" as="sourcePoint" />
          </mxGeometry>
        </mxCell>
        <mxCell id="GAhWslGpDzED-drZhbNq-68" value="&lt;b&gt;&lt;font style=&quot;font-size: 13px;&quot;&gt;xxxiv&lt;/font&gt;&lt;/b&gt;" style="edgeStyle=orthogonalEdgeStyle;rounded=0;orthogonalLoop=1;jettySize=auto;html=1;exitX=0.5;exitY=1;exitDx=0;exitDy=0;" edge="1" parent="1">
          <mxGeometry relative="1" as="geometry">
            <mxPoint x="217.71" y="2981" as="targetPoint" />
            <mxPoint x="217.71" y="2932" as="sourcePoint" />
          </mxGeometry>
        </mxCell>
        <mxCell id="GAhWslGpDzED-drZhbNq-69" value="&lt;b&gt;&lt;font style=&quot;font-size: 13px;&quot;&gt;xxxv&lt;/font&gt;&lt;/b&gt;" style="edgeStyle=orthogonalEdgeStyle;rounded=0;orthogonalLoop=1;jettySize=auto;html=1;exitX=0.5;exitY=1;exitDx=0;exitDy=0;" edge="1" parent="1" source="GAhWslGpDzED-drZhbNq-70">
          <mxGeometry relative="1" as="geometry">
            <mxPoint x="216" y="3071" as="targetPoint" />
          </mxGeometry>
        </mxCell>
        <mxCell id="GAhWslGpDzED-drZhbNq-70" value="34" style="ellipse;whiteSpace=wrap;html=1;aspect=fixed;" vertex="1" parent="1">
          <mxGeometry x="196" y="2982" width="40" height="40" as="geometry" />
        </mxCell>
        <mxCell id="GAhWslGpDzED-drZhbNq-71" value="35" style="ellipse;whiteSpace=wrap;html=1;aspect=fixed;" vertex="1" parent="1">
          <mxGeometry x="196" y="3072" width="40" height="40" as="geometry" />
        </mxCell>
        <mxCell id="GAhWslGpDzED-drZhbNq-72" value="36" style="ellipse;whiteSpace=wrap;html=1;aspect=fixed;" vertex="1" parent="1">
          <mxGeometry x="196" y="3162" width="40" height="40" as="geometry" />
        </mxCell>
        <mxCell id="GAhWslGpDzED-drZhbNq-73" value="&lt;b&gt;&lt;font style=&quot;font-size: 13px;&quot;&gt;xxxvi&lt;/font&gt;&lt;/b&gt;" style="edgeStyle=orthogonalEdgeStyle;rounded=0;orthogonalLoop=1;jettySize=auto;html=1;exitX=0.5;exitY=1;exitDx=0;exitDy=0;" edge="1" parent="1">
          <mxGeometry relative="1" as="geometry">
            <mxPoint x="215.71" y="3161" as="targetPoint" />
            <mxPoint x="215.71" y="3112" as="sourcePoint" />
          </mxGeometry>
        </mxCell>
      </root>
    </mxGraphModel>
  </diagram>
</mxfile>
